<svg version="1.1" id="Layer_1" xmlns="http://www.w3.org/2000/svg" xmlns:xlink="http://www.w3.org/1999/xlink" x="0px" y="0px"
	 width="100%" viewBox="0 0 525 525" enable-background="new 0 0 525 525" xml:space="preserve">
<path fill="#29A53A" opacity="1.000000" stroke="none" 
	d="
M1.000003,470.000000 
	C1.000000,333.643341 1.000000,197.286682 1.366570,60.320423 
	C4.791108,44.947865 10.943761,31.545811 21.783096,21.080275 
	C29.477999,13.650733 38.545269,7.642574 47.000000,1.000000 
	C190.689987,1.000000 334.379974,1.000000 478.626587,1.346805 
	C496.367767,10.292997 509.750916,22.815594 517.898254,40.346210 
	C521.136658,47.314198 523.330566,54.767593 526.000000,61.999996 
	C526.000000,196.023331 526.000000,330.046661 525.627563,464.687439 
	C522.506653,481.740051 515.549744,496.287842 503.969971,508.123199 
	C497.409485,514.828491 489.372162,520.088867 482.000000,526.000000 
	C336.643341,526.000000 191.286682,526.000000 45.360580,525.657227 
	C28.362011,517.176514 16.444241,504.482910 8.247818,488.311768 
	C5.292574,482.481201 3.385437,476.119385 1.000003,470.000000 
M92.030014,216.016006 
	C92.030014,216.016006 92.047470,216.084244 92.526474,215.687927 
	C93.033058,214.795715 93.539642,213.903503 94.528755,212.591629 
	C95.399292,211.143112 96.269829,209.694595 97.597221,207.743378 
	C99.301666,205.282730 101.015594,202.828598 102.709137,200.360458 
	C125.995056,166.424042 153.418884,136.268631 185.143646,110.029320 
	C191.505600,104.767403 197.745453,99.357841 204.654526,93.720184 
	C217.889221,85.207870 231.123917,76.695564 245.032471,68.042519 
	C245.774765,67.670479 246.527176,67.317245 247.257828,66.923599 
	C259.109894,60.538254 270.787506,53.797527 282.867615,47.877953 
	C291.337585,43.727444 300.355682,40.695480 309.882996,37.080204 
	C326.566162,31.987478 343.249359,26.894754 360.407196,21.796486 
	C360.644470,21.417343 360.881714,21.038200 361.118988,20.659079 
	C360.743683,20.805269 360.368378,20.951462 359.059479,21.018314 
	C347.026550,21.045021 334.993652,21.071728 322.051605,21.034933 
	C319.001007,20.914312 315.950378,20.793692 312.556885,20.032782 
	C311.160767,19.693272 309.764893,19.057817 308.368500,19.056688 
	C237.491043,18.999355 166.613541,18.984417 95.736153,19.062901 
	C94.163963,19.064642 92.593025,20.197481 90.233963,21.062059 
	C88.432915,21.353695 86.632919,21.652002 84.830658,21.935940 
	C67.237389,24.707651 53.423382,34.266979 42.603542,47.619755 
	C33.700649,58.606823 27.943247,71.537285 26.078121,86.383476 
	C25.713413,88.268066 25.030899,90.152466 25.029778,92.037277 
	C24.983721,169.453049 24.991163,246.868866 25.051634,324.284637 
	C25.053127,326.196045 25.728046,328.106964 26.326761,329.784454 
	C26.326761,329.784454 26.643698,329.680908 26.343323,330.647400 
	C26.328352,340.066040 26.313381,349.484650 26.147285,359.849518 
	C26.147285,379.180084 26.147285,398.510651 26.147285,417.841187 
	C26.635107,417.858734 27.122931,417.876251 27.610752,417.893768 
	C27.727089,416.368500 27.822073,414.841248 27.963524,413.318298 
	C28.516153,407.368225 28.872513,401.390350 29.689852,395.476410 
	C31.326517,383.634186 33.218403,371.827209 35.119762,359.233704 
	C41.762257,336.501160 48.404751,313.768616 55.380981,290.399750 
	C60.607525,278.279907 65.834068,266.160095 71.470116,253.497879 
	C77.949623,241.648682 84.429131,229.799484 91.307602,217.541183 
	C91.570015,217.041977 91.832420,216.542770 92.030014,216.016006 
M122.044304,278.795349 
	C124.461166,298.343567 130.411407,316.704895 140.109924,333.894165 
	C141.210571,335.844879 141.534317,338.965393 140.830261,341.081726 
	C136.873505,352.975555 132.398300,364.695496 128.282944,376.538330 
	C124.783806,386.607849 121.490128,396.749725 118.198586,406.889771 
	C117.295189,409.672791 116.725952,412.564240 115.941345,415.649872 
	C142.324600,407.317871 168.001511,399.134491 193.757553,391.208221 
	C195.952133,390.532837 198.852310,391.077271 201.120239,391.897186 
	C211.453110,395.632751 221.469788,400.401123 232.000595,403.384827 
	C241.823318,406.167938 252.087219,407.925079 262.270721,408.783325 
	C278.893921,410.184326 295.104675,407.235596 310.988037,402.070465 
	C331.543732,395.385986 350.513702,385.904785 366.498291,371.195465 
	C373.747742,364.524414 381.353241,357.851776 386.968597,349.890106 
	C394.284241,339.517639 401.095886,328.666565 405.694794,316.538208 
	C411.560028,301.070251 416.385254,285.346436 416.770508,268.823456 
	C417.020782,258.089722 415.765594,247.196426 414.009644,236.568802 
	C411.190186,219.504440 405.533386,203.335403 396.563324,188.347977 
	C386.898376,172.199554 375.339996,157.697205 360.037781,146.700790 
	C350.769226,140.040253 340.992645,133.809235 330.720093,128.901031 
	C320.385925,123.963417 309.338776,120.210403 298.251770,117.263809 
	C290.816315,115.287682 282.766846,115.621689 274.675476,114.221199 
	C270.351868,112.656685 266.054535,111.561745 261.280609,115.151833 
	C260.526520,115.126160 259.772430,115.100487 258.456055,114.584091 
	C256.607300,114.405502 254.758545,114.226913 252.909790,114.048325 
	C252.932678,114.593460 252.955566,115.138596 252.154648,115.944687 
	C219.670197,119.846107 191.194366,132.492599 167.383942,155.102859 
	C161.800400,160.404968 155.829132,165.604767 151.505890,171.866333 
	C141.579025,186.243866 131.696167,200.842804 127.701340,218.289246 
	C125.297485,228.787491 123.352203,239.390717 120.801918,250.283783 
	C120.902779,250.863815 121.003639,251.443863 121.262062,252.765213 
	C121.161026,253.511581 121.059998,254.257965 120.369972,255.175766 
	C120.302933,256.142303 120.235886,257.108826 120.098701,258.947510 
	C120.426338,262.958252 120.753983,266.969025 120.586113,271.543457 
	C120.982918,273.689636 121.379730,275.835785 122.044304,278.795349 
z"/>
<path fill="#FFFFFF" opacity="1.000000" stroke="none" 
	d="
M526.000000,61.531338 
	C523.330566,54.767593 521.136658,47.314198 517.898254,40.346210 
	C509.750916,22.815594 496.367767,10.292997 479.091583,1.346805 
	C494.602936,1.000000 510.205841,1.000000 526.000000,1.000000 
	C526.000000,21.020489 526.000000,41.041584 526.000000,61.531338 
z"/>
<path fill="#FFFFFF" opacity="1.000000" stroke="none" 
	d="
M46.531342,1.000000 
	C38.545269,7.642574 29.477999,13.650733 21.783096,21.080275 
	C10.943761,31.545811 4.791108,44.947865 1.366570,59.855408 
	C1.000000,40.415638 1.000000,20.831278 1.000000,1.000000 
	C16.019993,1.000000 31.041338,1.000000 46.531342,1.000000 
z"/>
<path fill="#FFFFFF" opacity="1.000000" stroke="none" 
	d="
M482.468628,526.000000 
	C489.372162,520.088867 497.409485,514.828491 503.969971,508.123199 
	C515.549744,496.287842 522.506653,481.740051 525.627563,465.152435 
	C526.000000,485.248260 526.000000,505.496490 526.000000,526.000000 
	C511.646790,526.000000 497.292053,526.000000 482.468628,526.000000 
z"/>
<path fill="#FFFFFF" opacity="1.000000" stroke="none" 
	d="
M1.000003,470.468658 
	C3.385437,476.119385 5.292574,482.481201 8.247818,488.311768 
	C16.444241,504.482910 28.362011,517.176514 44.895569,525.657227 
	C30.397795,526.000000 15.795590,526.000000 1.000000,526.000000 
	C1.000000,507.646210 1.000000,489.291779 1.000003,470.468658 
z"/>
<path fill="#FCFEFC" opacity="1.000000" stroke="none" 
	d="
M120.958969,255.004333 
	C121.059998,254.257965 121.161026,253.511581 121.290535,252.056046 
	C121.279617,250.880173 121.240227,250.413467 121.200836,249.946762 
	C123.352203,239.390717 125.297485,228.787491 127.701340,218.289246 
	C131.696167,200.842804 141.579025,186.243866 151.505890,171.866333 
	C155.829132,165.604767 161.800400,160.404968 167.383942,155.102859 
	C191.194366,132.492599 219.670197,119.846107 252.945511,115.856125 
	C255.497025,115.536644 257.257690,115.305725 259.018341,115.074814 
	C259.772430,115.100487 260.526520,115.126160 262.103149,115.101654 
	C266.947815,115.008339 270.969971,114.965195 274.992126,114.922043 
	C282.766846,115.621689 290.816315,115.287682 298.251770,117.263809 
	C309.338776,120.210403 320.385925,123.963417 330.720093,128.901031 
	C340.992645,133.809235 350.769226,140.040253 360.037781,146.700790 
	C375.339996,157.697205 386.898376,172.199554 396.563324,188.347977 
	C405.533386,203.335403 411.190186,219.504440 414.009644,236.568802 
	C415.765594,247.196426 417.020782,258.089722 416.770508,268.823456 
	C416.385254,285.346436 411.560028,301.070251 405.694794,316.538208 
	C401.095886,328.666565 394.284241,339.517639 386.968597,349.890106 
	C381.353241,357.851776 373.747742,364.524414 366.498291,371.195465 
	C350.513702,385.904785 331.543732,395.385986 310.988037,402.070465 
	C295.104675,407.235596 278.893921,410.184326 262.270721,408.783325 
	C252.087219,407.925079 241.823318,406.167938 232.000595,403.384827 
	C221.469788,400.401123 211.453110,395.632751 201.120239,391.897186 
	C198.852310,391.077271 195.952133,390.532837 193.757553,391.208221 
	C168.001511,399.134491 142.324600,407.317871 115.941345,415.649872 
	C116.725952,412.564240 117.295189,409.672791 118.198586,406.889771 
	C121.490128,396.749725 124.783806,386.607849 128.282944,376.538330 
	C132.398300,364.695496 136.873505,352.975555 140.830261,341.081726 
	C141.534317,338.965393 141.210571,335.844879 140.109924,333.894165 
	C130.411407,316.704895 124.461166,298.343567 121.950417,277.997223 
	C121.598228,275.125977 121.339928,273.052887 121.081619,270.979767 
	C120.753983,266.969025 120.426338,262.958252 120.443161,258.347656 
	C120.844734,256.833344 120.901848,255.918839 120.958969,255.004333 
M144.749680,256.738678 
	C144.814331,260.168091 144.878967,263.597504 144.792236,267.687561 
	C144.877365,268.126709 144.962494,268.565887 144.938919,269.858246 
	C145.278030,272.579071 145.617157,275.299927 145.871246,278.852356 
	C148.573593,297.790955 155.311432,315.136444 166.165390,330.917786 
	C167.120026,332.305817 167.767517,334.662140 167.286057,336.159973 
	C163.718445,347.259094 159.792953,358.242584 156.065567,369.291321 
	C155.149979,372.005280 154.550659,374.825867 153.496353,378.749542 
	C160.022110,376.632812 165.314636,374.830444 170.660049,373.201599 
	C179.492844,370.509979 188.325653,367.803314 197.241241,365.411499 
	C199.007751,364.937592 201.497498,365.272003 203.063004,366.214661 
	C235.289230,385.619751 269.544098,389.159393 305.350189,379.027496 
	C317.137512,375.692108 327.720276,369.770630 338.172180,363.037720 
	C348.127686,356.624603 355.804596,348.169373 363.810211,340.096039 
	C373.563995,330.259766 379.984680,317.832214 384.844604,304.749542 
	C396.693481,272.853058 395.160461,241.369461 381.505859,210.465744 
	C376.186951,198.427780 368.598938,187.925110 359.318542,178.300842 
	C347.224823,165.759033 333.798950,155.649734 317.931335,148.536407 
	C305.564392,142.992386 292.612671,140.535721 278.864594,139.226242 
	C265.696899,137.130783 252.826599,139.108063 239.241882,142.042160 
	C236.988129,142.601608 234.699615,143.049286 232.485931,143.737564 
	C206.919571,151.686661 185.896133,166.379532 169.583649,187.459534 
	C156.783234,204.001022 148.572983,222.655365 146.239273,244.164490 
	C145.847137,247.440781 145.455002,250.717056 144.835999,254.635513 
	C144.873322,255.083115 144.910645,255.530716 144.749680,256.738678 
z"/>
<path fill="#D4EDD8" opacity="1.000000" stroke="none" 
	d="
M26.747198,86.026588 
	C27.943247,71.537285 33.700649,58.606823 42.603542,47.619755 
	C53.423382,34.266979 67.237389,24.707651 84.830658,21.935940 
	C86.632919,21.652002 88.432915,21.353695 91.094170,20.962456 
	C108.970619,20.896194 125.986855,20.929539 142.915527,21.290268 
	C138.286163,26.177006 133.668289,30.663490 129.216766,35.309345 
	C115.758812,49.354786 102.404022,63.499123 88.937248,77.536049 
	C71.321457,95.897659 53.786491,114.341278 35.893787,132.430145 
	C30.306717,138.078476 26.459330,143.820496 28.065083,152.450775 
	C28.049358,153.910065 28.038883,154.971359 27.749062,156.025970 
	C27.283476,156.015060 27.097239,156.010849 26.820745,155.544952 
	C26.736059,132.064392 26.741629,109.045486 26.747198,86.026588 
z"/>
<path fill="#88CD91" opacity="1.000000" stroke="none" 
	d="
M204.041611,94.016357 
	C197.745453,99.357841 191.505600,104.767403 185.143646,110.029320 
	C153.418884,136.268631 125.995056,166.424042 102.709137,200.360458 
	C101.015594,202.828598 99.301666,205.282730 97.125336,207.757507 
	C94.996788,208.452133 92.917297,208.712341 91.753662,209.882935 
	C85.321030,216.354187 79.168015,223.102005 72.813889,229.652924 
	C59.516495,243.362167 46.176201,257.030121 32.782223,270.644897 
	C31.439217,272.010040 29.607084,272.893951 27.995831,273.532471 
	C28.009972,265.718689 28.030237,258.373627 28.409092,251.002991 
	C29.754190,250.443924 30.958733,250.117752 31.693571,249.344971 
	C39.249279,241.399063 46.685940,233.339966 54.238949,225.391464 
	C68.764282,210.105606 83.316994,194.845520 97.907326,179.621704 
	C114.702560,162.097214 131.584000,144.655289 148.364899,127.117142 
	C160.543106,114.389389 172.585815,101.532051 184.748413,88.789246 
	C200.243607,72.554863 215.664917,56.246254 231.389664,40.236374 
	C238.318008,33.182377 244.376221,24.963875 254.460419,20.948807 
	C261.281677,20.926304 267.639038,20.977297 273.872192,21.355694 
	C271.276093,23.177204 268.441559,24.290880 266.400421,26.236794 
	C260.285309,32.066528 254.421188,38.164749 248.566940,44.261711 
	C236.951202,56.359039 225.387466,68.506538 213.847397,80.676109 
	C210.652725,84.045059 207.552933,87.510872 204.565979,91.063698 
	C204.008804,91.726440 204.197250,93.016052 204.041611,94.016357 
z"/>
<path fill="#74C47F" opacity="1.000000" stroke="none" 
	d="
M312.899780,20.673073 
	C315.950378,20.793692 319.001007,20.914312 322.399536,21.380119 
	C321.049622,22.709698 319.363800,23.715460 317.651855,24.674603 
	C311.721100,27.997398 308.289276,33.012344 309.128998,37.163994 
	C300.355682,40.695480 291.337585,43.727444 282.867615,47.877953 
	C270.787506,53.797527 259.109894,60.538254 247.257828,66.923599 
	C246.527176,67.317245 245.774765,67.670479 244.438843,67.874542 
	C244.253937,66.284653 244.243362,64.481224 245.136276,63.499908 
	C253.963226,53.799198 262.682800,43.976215 271.975708,34.733753 
	C277.118378,29.618986 283.291809,25.540577 289.465790,20.931862 
	C297.587250,20.803493 305.243500,20.738283 312.899780,20.673073 
z"/>
<path fill="#7EC988" opacity="1.000000" stroke="none" 
	d="
M28.001953,274.001221 
	C29.607084,272.893951 31.439217,272.010040 32.782223,270.644897 
	C46.176201,257.030121 59.516495,243.362167 72.813889,229.652924 
	C79.168015,223.102005 85.321030,216.354187 91.753662,209.882935 
	C92.917297,208.712341 94.996788,208.452133 96.896912,208.008850 
	C96.269829,209.694595 95.399292,211.143112 93.962112,212.898758 
	C92.946144,214.165344 92.496811,215.124786 92.047470,216.084244 
	C92.047470,216.084244 92.030014,216.016006 91.801552,216.065796 
	C91.351601,216.727142 91.130112,217.338699 90.908630,217.950272 
	C84.429131,229.799484 77.949623,241.648682 70.946930,253.628830 
	C68.455376,254.500381 65.961388,254.714325 64.604958,256.068054 
	C56.514252,264.142822 49.376015,273.323853 40.591099,280.511780 
	C30.156546,289.049469 25.849897,298.986023 28.036808,312.502991 
	C28.027225,315.105042 28.175095,317.256287 27.975628,319.374878 
	C27.651129,322.821472 27.099478,326.246674 26.643700,329.680908 
	C26.643698,329.680908 26.326761,329.784454 26.280512,329.433746 
	C26.252619,326.259857 26.250353,323.436401 26.293007,320.613586 
	C26.453302,310.005280 26.628248,299.397217 27.051163,288.573486 
	C27.537066,283.572357 27.769510,278.786774 28.001953,274.001221 
z"/>
<path fill="#7EC988" opacity="1.000000" stroke="none" 
	d="
M289.000610,20.995020 
	C283.291809,25.540577 277.118378,29.618986 271.975708,34.733753 
	C262.682800,43.976215 253.963226,53.799198 245.136276,63.499908 
	C244.243362,64.481224 244.253937,66.284653 244.101929,67.944901 
	C231.123917,76.695564 217.889221,85.207870 204.348068,93.868271 
	C204.197250,93.016052 204.008804,91.726440 204.565979,91.063698 
	C207.552933,87.510872 210.652725,84.045059 213.847397,80.676109 
	C225.387466,68.506538 236.951202,56.359039 248.566940,44.261711 
	C254.421188,38.164749 260.285309,32.066528 266.400421,26.236794 
	C268.441559,24.290880 271.276093,23.177204 274.334015,21.283104 
	C279.613586,20.920418 284.307098,20.957720 289.000610,20.995020 
z"/>
<path fill="#65BE71" opacity="1.000000" stroke="none" 
	d="
M26.493511,330.164154 
	C27.099478,326.246674 27.651129,322.821472 27.975628,319.374878 
	C28.175095,317.256287 28.027225,315.105042 28.381100,312.430206 
	C30.095102,311.011353 31.675789,310.341858 32.795956,309.214722 
	C38.657234,303.316986 44.438587,297.338165 50.163769,291.307831 
	C51.825512,289.557556 53.292442,288.904999 55.047249,291.036072 
	C48.404751,313.768616 41.762257,336.501160 34.838211,359.373230 
	C33.192375,359.015015 31.851442,358.213226 30.457159,358.106201 
	C29.099312,358.001953 27.686874,358.608704 26.298409,358.903290 
	C26.313381,349.484650 26.328352,340.066040 26.493511,330.164154 
z"/>
<path fill="#74C47F" opacity="1.000000" stroke="none" 
	d="
M55.214115,290.717896 
	C53.292442,288.904999 51.825512,289.557556 50.163769,291.307831 
	C44.438587,297.338165 38.657234,303.316986 32.795956,309.214722 
	C31.675789,310.341858 30.095102,311.011353 28.382587,311.964783 
	C25.849897,298.986023 30.156546,289.049469 40.591099,280.511780 
	C49.376015,273.323853 56.514252,264.142822 64.604958,256.068054 
	C65.961388,254.714325 68.455376,254.500381 70.742172,253.900024 
	C65.834068,266.160095 60.607525,278.279907 55.214115,290.717896 
z"/>
<path fill="#199E2B" opacity="1.000000" stroke="none" 
	d="
M289.465790,20.931866 
	C284.307098,20.957720 279.613586,20.920418 274.458252,20.955702 
	C267.639038,20.977297 261.281677,20.926304 254.001068,20.884472 
	C249.050491,20.937317 245.023148,20.981003 240.532547,20.957096 
	C234.711014,20.937769 229.352722,20.986031 223.531738,20.963314 
	C217.711182,20.940292 212.353302,20.988251 206.536118,20.961039 
	C201.713257,20.888647 197.349701,20.891426 192.649414,20.660759 
	C186.877182,20.599024 181.441696,20.770739 175.751190,20.905399 
	C175.328720,20.906603 175.161240,20.944860 174.575546,20.879261 
	C172.440247,20.826906 170.723160,20.878407 168.544830,20.853739 
	C163.391296,20.832329 158.699020,20.887089 153.553482,20.865122 
	C149.734497,20.846560 146.368805,20.904720 143.003098,20.962881 
	C125.986855,20.929539 108.970619,20.896194 91.487946,20.832773 
	C92.593025,20.197481 94.163963,19.064642 95.736153,19.062901 
	C166.613541,18.984417 237.491043,18.999355 308.368500,19.056688 
	C309.764893,19.057817 311.160767,19.693272 312.728333,20.352928 
	C305.243500,20.738283 297.587250,20.803493 289.465790,20.931866 
z"/>
<path fill="#199E2B" opacity="1.000000" stroke="none" 
	d="
M26.797705,288.789062 
	C26.628248,299.397217 26.453302,310.005280 26.293007,320.613586 
	C26.250353,323.436401 26.252619,326.259857 26.161572,329.550568 
	C25.728046,328.106964 25.053127,326.196045 25.051634,324.284637 
	C24.991163,246.868866 24.983721,169.453049 25.029778,92.037277 
	C25.030899,90.152466 25.713413,88.268066 26.412659,86.205032 
	C26.741629,109.045486 26.736059,132.064392 26.719868,156.003937 
	C26.781111,171.288010 26.852980,185.651443 26.804880,200.469681 
	C26.742813,213.966751 26.800714,227.009018 26.740852,240.503906 
	C26.681295,256.900726 26.739500,272.844879 26.797705,288.789062 
z"/>
<path fill="#65BE71" opacity="1.000000" stroke="none" 
	d="
M309.505981,37.122101 
	C308.289276,33.012344 311.721100,27.997398 317.651855,24.674603 
	C319.363800,23.715460 321.049622,22.709698 322.854065,21.411869 
	C334.993652,21.071728 347.026550,21.045021 359.511536,21.233746 
	C359.963562,21.449177 359.932526,21.802031 359.932526,21.802031 
	C343.249359,26.894754 326.566162,31.987478 309.505981,37.122101 
z"/>
<path fill="#55B863" opacity="1.000000" stroke="none" 
	d="
M26.222847,359.376404 
	C27.686874,358.608704 29.099312,358.001953 30.457159,358.106201 
	C31.851442,358.213226 33.192375,359.015015 34.780788,359.759216 
	C33.218403,371.827209 31.326517,383.634186 29.689852,395.476410 
	C28.872513,401.390350 28.516153,407.368225 27.963524,413.318298 
	C27.822073,414.841248 27.727089,416.368500 27.610752,417.893768 
	C27.122931,417.876251 26.635107,417.858734 26.147285,417.841187 
	C26.147285,398.510651 26.147285,379.180084 26.222847,359.376404 
z"/>
<path fill="#199E2B" opacity="1.000000" stroke="none" 
	d="
M274.833801,114.571625 
	C270.969971,114.965195 266.947815,115.008339 262.466370,114.990936 
	C266.054535,111.561745 270.351868,112.656685 274.833801,114.571625 
z"/>
<path fill="#199E2B" opacity="1.000000" stroke="none" 
	d="
M258.737183,114.829453 
	C257.257690,115.305725 255.497025,115.536644 253.357422,115.725647 
	C252.955566,115.138596 252.932678,114.593460 252.909790,114.048325 
	C254.758545,114.226913 256.607300,114.405502 258.737183,114.829453 
z"/>
<path fill="#199E2B" opacity="1.000000" stroke="none" 
	d="
M120.833862,271.261597 
	C121.339928,273.052887 121.598228,275.125977 121.816536,277.590515 
	C121.379730,275.835785 120.982918,273.689636 120.833862,271.261597 
z"/>
<path fill="#199E2B" opacity="1.000000" stroke="none" 
	d="
M120.664467,255.090057 
	C120.901848,255.918839 120.844734,256.833344 120.478226,257.911621 
	C120.235886,257.108826 120.302933,256.142303 120.664467,255.090057 
z"/>
<path fill="#88CD91" opacity="1.000000" stroke="none" 
	d="
M92.286972,215.886078 
	C92.496811,215.124786 92.946144,214.165344 93.720856,213.108582 
	C93.539642,213.903503 93.033058,214.795715 92.286972,215.886078 
z"/>
<path fill="#55B863" opacity="1.000000" stroke="none" 
	d="
M360.169861,21.799259 
	C359.932526,21.802031 359.963562,21.449177 359.978333,21.273415 
	C360.368378,20.951462 360.743683,20.805269 361.118958,20.659069 
	C360.881714,21.038200 360.644470,21.417343 360.169861,21.799259 
z"/>
<path fill="#88CD91" opacity="1.000000" stroke="none" 
	d="
M91.108109,217.745728 
	C91.130112,217.338699 91.351601,216.727142 91.833961,216.079559 
	C91.832420,216.542770 91.570015,217.041977 91.108109,217.745728 
z"/>
<path fill="#199E2B" opacity="1.000000" stroke="none" 
	d="
M121.001373,250.115265 
	C121.240227,250.413467 121.279617,250.880173 121.211754,251.685394 
	C121.003639,251.443863 120.902779,250.863815 121.001373,250.115265 
z"/>
<path fill="#29A53A" opacity="1.000000" stroke="none" 
	d="
M279.199127,139.935425 
	C292.612671,140.535721 305.564392,142.992386 317.931335,148.536407 
	C333.798950,155.649734 347.224823,165.759033 359.318542,178.300842 
	C368.598938,187.925110 376.186951,198.427780 381.505859,210.465744 
	C395.160461,241.369461 396.693481,272.853058 384.844604,304.749542 
	C379.984680,317.832214 373.563995,330.259766 363.810211,340.096039 
	C355.804596,348.169373 348.127686,356.624603 338.172180,363.037720 
	C327.720276,369.770630 317.137512,375.692108 305.350189,379.027496 
	C269.544098,389.159393 235.289230,385.619751 203.063004,366.214661 
	C201.497498,365.272003 199.007751,364.937592 197.241241,365.411499 
	C188.325653,367.803314 179.492844,370.509979 170.660049,373.201599 
	C165.314636,374.830444 160.022110,376.632812 153.496353,378.749542 
	C154.550659,374.825867 155.149979,372.005280 156.065567,369.291321 
	C159.792953,358.242584 163.718445,347.259094 167.286057,336.159973 
	C167.767517,334.662140 167.120026,332.305817 166.165390,330.917786 
	C155.311432,315.136444 148.573593,297.790955 146.163452,278.129395 
	C145.986328,274.605957 145.516983,271.805481 145.047623,269.005035 
	C144.962494,268.565887 144.877365,268.126709 145.122284,267.039520 
	C145.284210,262.920410 145.116089,259.449371 144.947968,255.978317 
	C144.910645,255.530716 144.873322,255.083115 145.299728,254.158722 
	C146.155472,250.393402 146.547485,247.104904 146.939499,243.816391 
	C148.572983,222.655365 156.783234,204.001022 169.583649,187.459534 
	C185.896133,166.379532 206.919571,151.686661 232.485931,143.737564 
	C234.699615,143.049286 236.988129,142.601608 239.926086,142.278183 
	C241.246948,142.628738 241.894562,142.885101 242.518616,142.836838 
	C254.747101,141.890915 266.972839,140.909546 279.199127,139.935425 
M332.799744,322.273773 
	C339.017456,319.829132 340.696259,314.207092 342.312134,308.584320 
	C345.713379,296.748993 345.136383,295.462006 334.333801,290.112946 
	C333.291870,289.597015 332.270233,289.038452 331.216492,288.548309 
	C324.634613,285.486420 318.140381,282.200409 311.401031,279.534943 
	C309.453094,278.764557 305.922333,278.891449 304.620911,280.155304 
	C300.165680,284.481995 296.653351,289.780029 292.195343,294.103241 
	C290.523529,295.724518 286.730713,296.961243 284.794067,296.177155 
	C278.353638,293.569580 272.126343,290.280151 266.164581,286.677521 
	C253.049133,278.751923 243.779770,267.025024 235.368866,254.508926 
	C233.191833,251.269302 233.883102,248.912018 236.377396,246.133972 
	C239.606766,242.537201 242.563492,238.620850 245.089767,234.505768 
	C246.051132,232.939774 246.198990,230.164215 245.511337,228.413849 
	C241.682953,218.669128 237.573883,209.030090 233.327972,199.458206 
	C232.577560,197.766510 230.809433,195.432373 229.370804,195.327835 
	C222.890717,194.856888 216.308472,193.223282 210.288940,198.119385 
	C198.148453,207.994034 192.298553,231.048035 199.341217,245.477356 
	C207.664932,262.531342 218.531555,277.869171 231.736649,291.596649 
	C241.456207,301.700684 251.716080,310.974091 264.713654,316.631317 
	C277.363434,322.137146 289.808075,328.302612 303.744415,330.111816 
	C306.250275,330.437134 309.055481,331.676575 311.203003,330.952759 
	C318.315552,328.555359 325.190613,325.453369 332.799744,322.273773 
z"/>
<path fill="#199E2B" opacity="1.000000" stroke="none" 
	d="
M279.031860,139.580841 
	C266.972839,140.909546 254.747101,141.890915 242.518616,142.836838 
	C241.894562,142.885101 241.246948,142.628738 240.318970,142.288239 
	C252.826599,139.108063 265.696899,137.130783 279.031860,139.580841 
z"/>
<path fill="#199E2B" opacity="1.000000" stroke="none" 
	d="
M144.848816,256.358490 
	C145.116089,259.449371 145.284210,262.920410 145.197968,266.709198 
	C144.878967,263.597504 144.814331,260.168091 144.848816,256.358490 
z"/>
<path fill="#199E2B" opacity="1.000000" stroke="none" 
	d="
M146.589386,243.990448 
	C146.547485,247.104904 146.155472,250.393402 145.413162,253.837631 
	C145.455002,250.717056 145.847137,247.440781 146.589386,243.990448 
z"/>
<path fill="#199E2B" opacity="1.000000" stroke="none" 
	d="
M144.993271,269.431641 
	C145.516983,271.805481 145.986328,274.605957 146.205978,277.713562 
	C145.617157,275.299927 145.278030,272.579071 144.993271,269.431641 
z"/>
<path fill="#BFE4C4" opacity="1.000000" stroke="none" 
	d="
M154.006760,20.941845 
	C158.699020,20.887089 163.391296,20.832329 168.531906,21.219986 
	C168.190445,23.071974 167.642792,24.706884 166.573318,25.856213 
	C156.048676,37.166569 145.519119,48.474590 134.832260,59.631260 
	C116.662888,78.599403 98.338547,97.419060 80.157867,116.376450 
	C68.664497,128.360840 57.434334,140.599503 45.847221,152.491333 
	C40.205475,158.281448 34.016571,163.538391 28.060930,168.571533 
	C28.040474,164.081802 28.034441,160.057236 28.028408,156.032669 
	C28.038883,154.971359 28.049358,153.910065 28.392406,152.367340 
	C32.910587,147.666412 37.126869,143.476807 41.275970,139.221695 
	C53.124149,127.070770 64.968559,114.916000 76.768501,102.718277 
	C84.862671,94.351242 92.920692,85.948380 100.923241,77.493744 
	C117.149635,60.350677 133.331451,43.165401 149.518738,25.985355 
	C151.061371,24.348118 152.512924,22.625061 154.006760,20.941845 
z"/>
<path fill="#CBE9CF" opacity="1.000000" stroke="none" 
	d="
M153.553482,20.865120 
	C152.512924,22.625061 151.061371,24.348118 149.518738,25.985355 
	C133.331451,43.165401 117.149635,60.350677 100.923241,77.493744 
	C92.920692,85.948380 84.862671,94.351242 76.768501,102.718277 
	C64.968559,114.916000 53.124149,127.070770 41.275970,139.221695 
	C37.126869,143.476807 32.910587,147.666412 28.397659,151.969360 
	C26.459330,143.820496 30.306717,138.078476 35.893787,132.430145 
	C53.786491,114.341278 71.321457,95.897659 88.937248,77.536049 
	C102.404022,63.499123 115.758812,49.354786 129.216766,35.309345 
	C133.668289,30.663490 138.286163,26.177006 142.915527,21.290268 
	C146.368805,20.904720 149.734497,20.846560 153.553482,20.865120 
z"/>
<path fill="#CBE9CF" opacity="1.000000" stroke="none" 
	d="
M27.749062,156.025970 
	C28.034441,160.057236 28.040474,164.081802 28.047108,169.035248 
	C28.041834,175.312271 28.035959,180.660400 28.020504,186.472351 
	C28.006947,191.290558 28.002970,195.644974 27.995567,199.991852 
	C27.992142,199.984314 27.976370,199.977783 27.713423,199.985168 
	C27.275267,199.999985 27.100058,200.007416 26.924847,200.014862 
	C26.852980,185.651443 26.781111,171.288010 26.810123,156.465607 
	C27.097239,156.010849 27.283476,156.015060 27.749062,156.025970 
z"/>
<path fill="#8FD098" opacity="1.000000" stroke="none" 
	d="
M240.995804,21.024687 
	C245.023148,20.981003 249.050491,20.937317 253.537186,20.957968 
	C244.376221,24.963875 238.318008,33.182377 231.389664,40.236374 
	C215.664917,56.246254 200.243607,72.554863 184.748413,88.789246 
	C172.585815,101.532051 160.543106,114.389389 148.364899,127.117142 
	C131.584000,144.655289 114.702560,162.097214 97.907326,179.621704 
	C83.316994,194.845520 68.764282,210.105606 54.238949,225.391464 
	C46.685940,233.339966 39.249279,241.399063 31.693571,249.344971 
	C30.958733,250.117752 29.754190,250.443924 28.395647,250.541336 
	C28.010296,246.728195 27.996984,243.351135 27.980659,239.644775 
	C27.982391,238.875702 27.987137,238.435944 28.329178,237.931076 
	C30.096235,236.758652 31.686926,235.806244 32.927704,234.517044 
	C38.117466,229.124680 43.173229,223.603683 48.331127,218.180252 
	C61.861782,203.953094 75.408989,189.741653 88.970604,175.544006 
	C103.798195,160.020996 118.651299,144.522354 133.489609,129.009598 
	C147.982376,113.858086 162.474808,98.706268 176.959457,83.547012 
	C191.098862,68.749115 205.110092,53.826157 219.414764,39.189911 
	C225.991211,32.461040 231.826904,24.724501 240.995804,21.024687 
z"/>
<path fill="#99D4A2" opacity="1.000000" stroke="none" 
	d="
M27.983673,239.974075 
	C27.996984,243.351135 28.010296,246.728195 28.037056,250.566910 
	C28.030237,258.373627 28.009972,265.718689 27.995831,273.532471 
	C27.769510,278.786774 27.537066,283.572357 27.051163,288.573486 
	C26.739500,272.844879 26.681295,256.900726 27.021950,240.480927 
	C27.608429,239.994904 27.796051,239.984497 27.983673,239.974075 
z"/>
<path fill="#99D4A2" opacity="1.000000" stroke="none" 
	d="
M240.532547,20.957096 
	C231.826904,24.724501 225.991211,32.461040 219.414764,39.189911 
	C205.110092,53.826157 191.098862,68.749115 176.959457,83.547012 
	C162.474808,98.706268 147.982376,113.858086 133.489609,129.009598 
	C118.651299,144.522354 103.798195,160.020996 88.970604,175.544006 
	C75.408989,189.741653 61.861782,203.953094 48.331127,218.180252 
	C43.173229,223.603683 38.117466,229.124680 32.927704,234.517044 
	C31.686926,235.806244 30.096235,236.758652 28.318439,237.463196 
	C27.989744,230.713333 28.009087,224.366241 28.362852,217.947556 
	C30.240072,216.642120 31.950897,215.567963 33.299099,214.149200 
	C44.182961,202.695877 54.962456,191.143372 65.844131,179.687958 
	C79.938278,164.850708 94.091644,150.069672 108.229942,135.274414 
	C122.828575,119.997429 137.399323,104.693497 152.055328,89.471703 
	C171.449219,69.329109 190.904587,49.245663 210.358017,29.160513 
	C213.526627,25.889017 216.228851,21.732018 221.899780,22.798397 
	C222.467346,22.905128 223.290115,21.654808 223.994446,21.034296 
	C229.352722,20.986031 234.711014,20.937769 240.532547,20.957096 
z"/>
<path fill="#A5D9AC" opacity="1.000000" stroke="none" 
	d="
M223.531738,20.963316 
	C223.290115,21.654808 222.467346,22.905128 221.899780,22.798397 
	C216.228851,21.732018 213.526627,25.889017 210.358017,29.160513 
	C190.904587,49.245663 171.449219,69.329109 152.055328,89.471703 
	C137.399323,104.693497 122.828575,119.997429 108.229942,135.274414 
	C94.091644,150.069672 79.938278,164.850708 65.844131,179.687958 
	C54.962456,191.143372 44.182961,202.695877 33.299099,214.149200 
	C31.950897,215.567963 30.240072,216.642120 28.351585,217.477585 
	C27.996056,211.378738 27.986212,205.678253 27.976370,199.977783 
	C27.976370,199.977783 27.992142,199.984314 28.333370,199.925003 
	C30.750055,197.780701 32.861130,195.729797 34.895496,193.605453 
	C57.205463,170.308884 79.516594,147.013382 101.799713,123.691139 
	C114.897728,109.982315 127.904442,96.186119 141.026993,82.500916 
	C158.530121,64.247314 176.134384,46.090622 193.622131,27.822365 
	C196.490646,24.825834 199.304443,22.311089 203.899704,22.866642 
	C204.844055,22.980814 205.959076,21.683125 206.995438,21.036207 
	C212.353302,20.988251 217.711182,20.940292 223.531738,20.963316 
z"/>
<path fill="#B6E0BB" opacity="1.000000" stroke="none" 
	d="
M28.030088,186.008545 
	C28.035959,180.660400 28.041834,175.312271 28.061531,169.500412 
	C34.016571,163.538391 40.205475,158.281448 45.847221,152.491333 
	C57.434334,140.599503 68.664497,128.360840 80.157867,116.376450 
	C98.338547,97.419060 116.662888,78.599403 134.832260,59.631260 
	C145.519119,48.474590 156.048676,37.166569 166.573318,25.856213 
	C167.642792,24.706884 168.190445,23.071974 168.993164,21.296154 
	C170.723160,20.878407 172.440247,20.826906 174.729523,21.073895 
	C175.531128,21.614054 175.788666,21.820665 176.519287,22.001293 
	C179.638031,22.068781 182.311829,22.127195 184.908478,22.506889 
	C174.818924,33.452423 164.838913,44.107452 154.786194,54.693439 
	C141.036301,69.172707 127.288338,83.654594 113.436066,98.035675 
	C93.226280,119.016975 72.910095,139.895767 52.670151,160.848083 
	C46.081066,167.669083 39.611111,174.605057 33.035580,181.439285 
	C31.472532,183.063843 29.704069,184.490738 28.030088,186.008545 
z"/>
<path fill="#AFDDB5" opacity="1.000000" stroke="none" 
	d="
M28.020508,186.472351 
	C29.704069,184.490738 31.472532,183.063843 33.035580,181.439285 
	C39.611111,174.605057 46.081066,167.669083 52.670151,160.848083 
	C72.910095,139.895767 93.226280,119.016975 113.436066,98.035675 
	C127.288338,83.654594 141.036301,69.172707 154.786194,54.693439 
	C164.838913,44.107452 174.818924,33.452423 185.337677,22.452379 
	C188.224716,21.682463 190.605438,21.288332 192.986160,20.894203 
	C197.349701,20.891426 201.713257,20.888647 206.536118,20.961037 
	C205.959076,21.683125 204.844055,22.980814 203.899704,22.866642 
	C199.304443,22.311089 196.490646,24.825834 193.622131,27.822365 
	C176.134384,46.090622 158.530121,64.247314 141.026993,82.500916 
	C127.904442,96.186119 114.897728,109.982315 101.799713,123.691139 
	C79.516594,147.013382 57.205463,170.308884 34.895496,193.605453 
	C32.861130,195.729797 30.750055,197.780701 28.336796,199.932541 
	C28.002970,195.644974 28.006947,191.290558 28.020508,186.472351 
z"/>
<path fill="#55B863" opacity="1.000000" stroke="none" 
	d="
M192.649414,20.660757 
	C190.605438,21.288332 188.224716,21.682463 185.414795,22.131100 
	C182.311829,22.127195 179.638031,22.068781 176.477661,21.740437 
	C175.996109,21.294487 176.001144,21.118469 176.006195,20.942451 
	C181.441696,20.770739 186.877182,20.599024 192.649414,20.660757 
z"/>
<path fill="#CBE9CF" opacity="1.000000" stroke="none" 
	d="
M175.751190,20.905397 
	C176.001144,21.118469 175.996109,21.294487 176.032700,21.731361 
	C175.788666,21.820665 175.531128,21.614054 175.147736,21.177752 
	C175.161240,20.944860 175.328720,20.906603 175.751190,20.905397 
z"/>
<path fill="#B6E0BB" opacity="1.000000" stroke="none" 
	d="
M27.713423,199.985168 
	C27.986212,205.678253 27.996056,211.378738 28.017164,217.549179 
	C28.009087,224.366241 27.989744,230.713333 27.981140,237.528305 
	C27.987137,238.435944 27.982391,238.875702 27.980659,239.644775 
	C27.796051,239.984497 27.608429,239.994904 27.139711,240.028290 
	C26.800714,227.009018 26.742813,213.966751 26.804880,200.469681 
	C27.100058,200.007416 27.275267,199.999985 27.713423,199.985168 
z"/>
<path fill="#FDFEFD" opacity="1.000000" stroke="none" 
	d="
M332.478271,322.447754 
	C325.190613,325.453369 318.315552,328.555359 311.203003,330.952759 
	C309.055481,331.676575 306.250275,330.437134 303.744415,330.111816 
	C289.808075,328.302612 277.363434,322.137146 264.713654,316.631317 
	C251.716080,310.974091 241.456207,301.700684 231.736649,291.596649 
	C218.531555,277.869171 207.664932,262.531342 199.341217,245.477356 
	C192.298553,231.048035 198.148453,207.994034 210.288940,198.119385 
	C216.308472,193.223282 222.890717,194.856888 229.370804,195.327835 
	C230.809433,195.432373 232.577560,197.766510 233.327972,199.458206 
	C237.573883,209.030090 241.682953,218.669128 245.511337,228.413849 
	C246.198990,230.164215 246.051132,232.939774 245.089767,234.505768 
	C242.563492,238.620850 239.606766,242.537201 236.377396,246.133972 
	C233.883102,248.912018 233.191833,251.269302 235.368866,254.508926 
	C243.779770,267.025024 253.049133,278.751923 266.164581,286.677521 
	C272.126343,290.280151 278.353638,293.569580 284.794067,296.177155 
	C286.730713,296.961243 290.523529,295.724518 292.195343,294.103241 
	C296.653351,289.780029 300.165680,284.481995 304.620911,280.155304 
	C305.922333,278.891449 309.453094,278.764557 311.401031,279.534943 
	C318.140381,282.200409 324.634613,285.486420 331.216492,288.548309 
	C332.270233,289.038452 333.291870,289.597015 334.333801,290.112946 
	C345.136383,295.462006 345.713379,296.748993 342.312134,308.584320 
	C340.696259,314.207092 339.017456,319.829132 332.478271,322.447754 
z"/>
</svg>