<svg version="1.1" id="Layer_1" xmlns="http://www.w3.org/2000/svg" xmlns:xlink="http://www.w3.org/1999/xlink" x="0px" y="0px"
	 width="100%" viewBox="0 0 826 825" enable-background="new 0 0 826 825" xml:space="preserve">
<path fill="#3777F0" opacity="1.000000" stroke="none" 
	d="
M0.999999,775.000000 
	C1.000000,533.305298 1.000000,291.610596 1.258118,49.798897 
	C2.321295,48.483219 3.382655,47.384167 3.893037,46.070969 
	C11.763917,25.819477 25.623802,11.411244 45.642281,2.911345 
	C46.254925,2.651216 46.554482,1.653724 47.000000,1.000001 
	C291.028046,1.000000 535.056091,1.000000 779.208862,1.277898 
	C783.909851,3.861287 788.851257,5.648133 792.995728,8.566697 
	C807.076050,18.482229 818.591553,30.602718 824.213135,47.421745 
	C824.564880,48.474098 826.044861,49.149342 827.000000,50.000015 
	C827.000000,291.361359 827.000000,532.722717 826.742126,774.201172 
	C825.822876,775.223206 824.932251,776.037659 824.533936,777.046509 
	C815.143005,800.828735 798.522827,816.786743 773.863403,824.150696 
	C773.430115,824.280090 773.281433,825.362366 773.000000,826.000000 
	C533.971985,826.000000 294.943939,826.000000 55.797615,825.711182 
	C51.848724,823.827759 47.955574,822.367310 44.198040,820.615845 
	C24.832462,811.589294 11.094389,797.277344 3.512397,777.172485 
	C3.169009,776.262024 1.859508,775.715820 0.999999,775.000000 
M149.821457,398.542084 
	C149.721191,399.701233 149.562256,400.858704 149.529129,402.019775 
	C148.037140,454.287323 160.350815,502.991760 187.418503,547.815369 
	C189.318970,550.962463 189.684952,553.680298 188.824310,557.131836 
	C180.250473,591.516357 171.794022,625.930298 163.323807,660.340637 
	C162.958008,661.826660 162.779984,663.359009 162.409790,665.465271 
	C164.608704,664.907104 165.890228,664.621338 167.148880,664.256592 
	C200.063705,654.718323 232.995224,645.236572 265.863251,635.539551 
	C269.684631,634.412170 272.531464,634.716675 275.999146,636.816956 
	C330.341614,669.730164 389.205780,681.667542 451.922455,672.655945 
	C512.542603,663.945435 564.447144,637.102539 606.002625,592.124146 
	C664.073730,529.269836 686.830017,454.676239 674.408630,370.103210 
	C665.856018,311.871277 639.654236,261.911469 596.986877,221.356110 
	C535.780945,163.179916 462.499878,139.271759 378.879730,149.532181 
	C317.203369,157.100067 264.668823,184.399048 221.932755,229.590698 
	C177.425781,276.655029 153.476562,332.815308 149.821457,398.542084 
M362.739014,93.225929 
	C341.227173,96.805328 320.047974,101.653183 299.153809,109.650696 
	C302.159821,117.781097 305.063171,125.633865 308.065277,133.753647 
	C345.649048,120.173798 383.897858,114.470238 423.618805,115.134911 
	C423.618805,106.319435 423.618805,98.216812 423.618805,89.647858 
	C403.581940,88.909492 383.556030,90.217476 362.739014,93.225929 
M701.551514,473.944305 
	C696.735779,490.316803 691.919983,506.689301 686.973877,523.505066 
	C694.064392,526.455078 701.783752,529.666809 709.785583,532.996094 
	C726.333984,492.733673 734.679199,451.540405 734.153870,408.404419 
	C725.452454,408.404419 717.244446,408.404419 708.574951,408.404419 
	C708.545471,430.471405 706.340759,451.935242 701.551514,473.944305 
M160.709595,698.172974 
	C151.963531,700.849915 143.203735,703.483154 134.478790,706.227173 
	C131.381805,707.201172 127.849030,708.585754 125.853951,705.342957 
	C124.508057,703.155273 124.158859,699.708862 124.706436,697.108276 
	C127.886284,682.006042 131.464233,666.987610 134.999023,651.541260 
	C126.468742,649.596619 118.302727,647.735046 109.826477,645.802795 
	C106.066742,662.286560 102.286377,678.131897 98.861320,694.053650 
	C94.109421,716.143311 110.879272,735.726562 133.179901,732.682861 
	C145.837555,730.955139 158.055191,726.003723 170.910416,722.380249 
	C168.386047,714.104492 166.162201,706.662415 163.776535,699.272644 
	C163.579773,698.663208 162.284668,698.408264 160.709595,698.172974 
M425.327057,730.809021 
	C434.876862,730.043823 444.426697,729.278625 454.558746,728.466858 
	C453.394409,719.428040 452.345337,711.283813 451.241302,702.713257 
	C411.619690,707.607178 373.071045,704.822571 334.862335,694.539185 
	C332.490112,703.218445 330.320343,711.156860 328.081421,719.348389 
	C359.952515,728.204590 391.907440,731.583618 425.327057,730.809021 
M120.181061,441.151123 
	C117.567329,414.956696 118.414917,388.814514 122.216545,362.531555 
	C113.412056,361.187775 105.416351,359.967468 96.868950,358.662933 
	C90.300285,401.395111 91.710907,443.210449 101.683113,485.288544 
	C110.140434,483.255249 118.137886,481.332550 126.168694,479.401794 
	C124.148636,466.622711 122.207016,454.339844 120.181061,441.151123 
M150.986588,544.434448 
	C144.939575,530.837036 138.892563,517.239624 132.725861,503.373077 
	C125.063072,505.945221 117.231567,508.573975 108.832481,511.393280 
	C112.331474,520.314697 115.572662,528.825317 119.004585,537.258301 
	C122.293121,545.338989 127.889229,553.160461 128.589432,561.424683 
	C129.298050,569.788025 125.240524,578.553040 123.283943,587.145081 
	C120.783447,598.125732 118.296204,609.109314 115.711166,620.497314 
	C124.233200,622.463013 132.266937,624.316162 140.564743,626.230164 
	C141.058258,624.660889 141.534622,623.444885 141.822495,622.185852 
	C145.935440,604.197876 149.635025,586.102966 154.286087,568.255859 
	C156.491013,559.795105 156.574127,552.285583 150.986588,544.434448 
M491.704529,721.153381 
	C529.838928,711.600708 564.883179,695.371582 597.356628,672.629211 
	C592.284790,665.437500 587.450439,658.582581 582.462219,651.509521 
	C549.751526,674.368042 514.395081,689.886719 475.697021,698.492615 
	C477.588043,707.078430 479.360260,715.124817 481.218994,723.563965 
	C484.806641,722.750671 487.855347,722.059509 491.704529,721.153381 
M146.298416,282.874176 
	C155.843292,265.960754 165.388184,249.047333 175.217743,231.629471 
	C169.399567,227.320831 162.649689,222.322220 155.952377,217.362549 
	C135.669434,239.587433 106.956169,301.244415 102.442535,332.233612 
	C110.534851,334.163116 118.679565,336.105103 125.714035,337.782379 
	C132.630112,319.305573 139.317963,301.438538 146.298416,282.874176 
M510.803711,131.591568 
	C526.947754,138.485031 543.091797,145.378479 559.643066,152.445801 
	C563.389526,145.828674 567.448792,138.659164 571.761230,131.042480 
	C533.992554,109.730530 494.179840,96.594231 451.237762,91.665176 
	C450.202148,100.463524 449.255890,108.502808 448.433289,115.491386 
	C469.304260,120.834740 489.692047,126.054398 510.803711,131.591568 
M710.034790,287.441681 
	C705.774841,278.141357 701.514893,268.841064 697.137329,259.283936 
	C688.960388,263.648102 681.678528,267.534546 674.002441,271.631409 
	C692.663269,306.718384 703.566040,343.751648 707.395691,383.355011 
	C716.229614,382.527222 724.549438,381.747620 733.016357,380.954224 
	C729.967957,348.404175 722.558960,317.689880 710.034790,287.441681 
M639.231323,220.274094 
	C646.713379,230.035904 654.195435,239.797729 661.981445,249.956116 
	C668.756836,245.560379 675.800049,240.990860 683.132263,236.233810 
	C659.554260,199.874466 630.290955,169.767593 594.612854,145.353149 
	C589.562012,152.754349 584.915527,159.563034 580.448853,166.108170 
	C591.056458,174.766174 601.633911,182.623001 611.281067,191.491837 
	C620.939514,200.371124 629.668579,210.261383 639.231323,220.274094 
M236.209442,172.678040 
	C252.277344,162.513855 268.345245,152.349686 284.633148,142.046341 
	C281.410309,135.246170 277.882324,127.802032 274.185242,120.001205 
	C234.962418,138.571564 201.393555,163.774628 172.641281,196.170868 
	C179.262222,202.020004 185.544800,207.570221 190.873581,212.277832 
	C206.158829,198.889542 220.890579,185.986053 236.209442,172.678040 
M294.503723,680.007324 
	C287.199188,676.409241 279.769318,673.039795 272.636017,669.129333 
	C268.187988,666.690918 263.990173,666.436523 259.272980,667.913513 
	C243.730484,672.779968 228.131195,677.464783 212.562424,682.247620 
	C204.510452,684.721252 196.476837,687.254639 188.076675,689.872681 
	C190.640976,698.218994 193.059082,706.089478 195.564072,714.242676 
	C197.545212,713.746765 199.146729,713.421875 200.701645,712.945007 
	C217.708328,707.730286 234.846039,702.892151 251.649384,697.086853 
	C259.777100,694.278870 266.618469,694.223999 274.123322,698.843872 
	C280.293182,702.641785 287.371643,704.975525 294.082336,707.877380 
	C296.737854,709.025635 299.487915,709.955078 302.367401,711.049744 
	C305.453094,702.675781 308.303009,694.941650 311.219330,687.027405 
	C305.578766,684.660889 300.390747,682.484314 294.503723,680.007324 
M660.876343,570.338623 
	C644.701416,595.223511 625.045532,617.045898 602.165833,636.440979 
	C607.792542,643.158630 613.183899,649.595276 618.752686,656.243774 
	C651.942871,628.335266 678.291626,595.714905 698.293030,557.441528 
	C690.519165,553.403625 683.079041,549.539062 675.690735,545.701416 
	C670.670532,554.051880 665.960632,561.886353 660.876343,570.338623 
z"/>
<path fill="#000000" opacity="1.000000" stroke="none" 
	d="
M0.999999,775.468628 
	C1.859508,775.715820 3.169009,776.262024 3.512397,777.172485 
	C11.094389,797.277344 24.832462,811.589294 44.198040,820.615845 
	C47.955574,822.367310 51.848724,823.827759 55.339661,825.711182 
	C37.075329,826.000000 19.150654,826.000000 1.000000,826.000000 
	C1.000000,809.313110 1.000000,792.625244 0.999999,775.468628 
z"/>
<path fill="#000000" opacity="1.000000" stroke="none" 
	d="
M773.468628,826.000000 
	C773.281433,825.362366 773.430115,824.280090 773.863403,824.150696 
	C798.522827,816.786743 815.143005,800.828735 824.533936,777.046509 
	C824.932251,776.037659 825.822876,775.223206 826.742126,774.659058 
	C827.000000,791.928833 827.000000,808.857727 827.000000,826.000000 
	C809.312988,826.000000 791.625183,826.000000 773.468628,826.000000 
z"/>
<path fill="#000000" opacity="1.000000" stroke="none" 
	d="
M827.000000,49.531357 
	C826.044861,49.149342 824.564880,48.474098 824.213135,47.421745 
	C818.591553,30.602718 807.076050,18.482229 792.995728,8.566697 
	C788.851257,5.648133 783.909851,3.861287 779.666870,1.277898 
	C795.594910,1.000000 811.189880,1.000000 827.000000,1.000000 
	C827.000000,17.020252 827.000000,33.041470 827.000000,49.531357 
z"/>
<path fill="#000000" opacity="1.000000" stroke="none" 
	d="
M46.531342,1.000001 
	C46.554482,1.653724 46.254925,2.651216 45.642281,2.911345 
	C25.623802,11.411244 11.763917,25.819477 3.893037,46.070969 
	C3.382655,47.384167 2.321295,48.483219 1.258118,49.340942 
	C1.000000,33.074837 1.000000,17.149675 1.000000,1.000000 
	C16.020149,1.000000 31.041416,1.000000 46.531342,1.000001 
z"/>
<path fill="#FFFFFF" opacity="1.000000" stroke="none" 
	d="
M149.827621,398.049255 
	C153.476562,332.815308 177.425781,276.655029 221.932755,229.590698 
	C264.668823,184.399048 317.203369,157.100067 378.879730,149.532181 
	C462.499878,139.271759 535.780945,163.179916 596.986877,221.356110 
	C639.654236,261.911469 665.856018,311.871277 674.408630,370.103210 
	C686.830017,454.676239 664.073730,529.269836 606.002625,592.124146 
	C564.447144,637.102539 512.542603,663.945435 451.922455,672.655945 
	C389.205780,681.667542 330.341614,669.730164 275.999146,636.816956 
	C272.531464,634.716675 269.684631,634.412170 265.863251,635.539551 
	C232.995224,645.236572 200.063705,654.718323 167.148880,664.256592 
	C165.890228,664.621338 164.608704,664.907104 162.409790,665.465271 
	C162.779984,663.359009 162.958008,661.826660 163.323807,660.340637 
	C171.794022,625.930298 180.250473,591.516357 188.824310,557.131836 
	C189.684952,553.680298 189.318970,550.962463 187.418503,547.815369 
	C160.350815,502.991760 148.037140,454.287323 149.529129,402.019775 
	C149.562256,400.858704 149.721191,399.701233 149.827621,398.049255 
z"/>
<path fill="#FCFDFF" opacity="1.000000" stroke="none" 
	d="
M363.174866,93.177010 
	C383.556030,90.217476 403.581940,88.909492 423.618805,89.647858 
	C423.618805,98.216812 423.618805,106.319435 423.618805,115.134911 
	C383.897858,114.470238 345.649048,120.173798 308.065277,133.753647 
	C305.063171,125.633865 302.159821,117.781097 299.153809,109.650696 
	C320.047974,101.653183 341.227173,96.805328 363.174866,93.177010 
z"/>
<path fill="#FCFDFF" opacity="1.000000" stroke="none" 
	d="
M701.660889,473.537964 
	C706.340759,451.935242 708.545471,430.471405 708.574951,408.404419 
	C717.244446,408.404419 725.452454,408.404419 734.153870,408.404419 
	C734.679199,451.540405 726.333984,492.733673 709.785583,532.996094 
	C701.783752,529.666809 694.064392,526.455078 686.973877,523.505066 
	C691.919983,506.689301 696.735779,490.316803 701.660889,473.537964 
z"/>
<path fill="#FDFDFF" opacity="1.000000" stroke="none" 
	d="
M161.104736,698.080811 
	C162.284668,698.408264 163.579773,698.663208 163.776535,699.272644 
	C166.162201,706.662415 168.386047,714.104492 170.910416,722.380249 
	C158.055191,726.003723 145.837555,730.955139 133.179901,732.682861 
	C110.879272,735.726562 94.109421,716.143311 98.861320,694.053650 
	C102.286377,678.131897 106.066742,662.286560 109.826477,645.802795 
	C118.302727,647.735046 126.468742,649.596619 134.999023,651.541260 
	C131.464233,666.987610 127.886284,682.006042 124.706436,697.108276 
	C124.158859,699.708862 124.508057,703.155273 125.853951,705.342957 
	C127.849030,708.585754 131.381805,707.201172 134.478790,706.227173 
	C143.203735,703.483154 151.963531,700.849915 161.104736,698.080811 
z"/>
<path fill="#FCFDFF" opacity="1.000000" stroke="none" 
	d="
M424.844910,730.822021 
	C391.907440,731.583618 359.952515,728.204590 328.081421,719.348389 
	C330.320343,711.156860 332.490112,703.218445 334.862335,694.539185 
	C373.071045,704.822571 411.619690,707.607178 451.241302,702.713257 
	C452.345337,711.283813 453.394409,719.428040 454.558746,728.466858 
	C444.426697,729.278625 434.876862,730.043823 424.844910,730.822021 
z"/>
<path fill="#FCFDFF" opacity="1.000000" stroke="none" 
	d="
M120.223228,441.604034 
	C122.207016,454.339844 124.148636,466.622711 126.168694,479.401794 
	C118.137886,481.332550 110.140434,483.255249 101.683113,485.288544 
	C91.710907,443.210449 90.300285,401.395111 96.868950,358.662933 
	C105.416351,359.967468 113.412056,361.187775 122.216545,362.531555 
	C118.414917,388.814514 117.567329,414.956696 120.223228,441.604034 
z"/>
<path fill="#FCFDFF" opacity="1.000000" stroke="none" 
	d="
M151.138519,544.776978 
	C156.574127,552.285583 156.491013,559.795105 154.286087,568.255859 
	C149.635025,586.102966 145.935440,604.197876 141.822495,622.185852 
	C141.534622,623.444885 141.058258,624.660889 140.564743,626.230164 
	C132.266937,624.316162 124.233200,622.463013 115.711166,620.497314 
	C118.296204,609.109314 120.783447,598.125732 123.283943,587.145081 
	C125.240524,578.553040 129.298050,569.788025 128.589432,561.424683 
	C127.889229,553.160461 122.293121,545.338989 119.004585,537.258301 
	C115.572662,528.825317 112.331474,520.314697 108.832481,511.393280 
	C117.231567,508.573975 125.063072,505.945221 132.725861,503.373077 
	C138.892563,517.239624 144.939575,530.837036 151.138519,544.776978 
z"/>
<path fill="#FDFDFF" opacity="1.000000" stroke="none" 
	d="
M491.304321,721.260864 
	C487.855347,722.059509 484.806641,722.750671 481.218994,723.563965 
	C479.360260,715.124817 477.588043,707.078430 475.697021,698.492615 
	C514.395081,689.886719 549.751526,674.368042 582.462219,651.509521 
	C587.450439,658.582581 592.284790,665.437500 597.356628,672.629211 
	C564.883179,695.371582 529.838928,711.600708 491.304321,721.260864 
z"/>
<path fill="#FDFDFF" opacity="1.000000" stroke="none" 
	d="
M146.152100,283.222839 
	C139.317963,301.438538 132.630112,319.305573 125.714035,337.782379 
	C118.679565,336.105103 110.534851,334.163116 102.442535,332.233612 
	C106.956169,301.244415 135.669434,239.587433 155.952377,217.362549 
	C162.649689,222.322220 169.399567,227.320831 175.217743,231.629471 
	C165.388184,249.047333 155.843292,265.960754 146.152100,283.222839 
z"/>
<path fill="#FDFDFF" opacity="1.000000" stroke="none" 
	d="
M510.441772,131.432800 
	C489.692047,126.054398 469.304260,120.834740 448.433289,115.491386 
	C449.255890,108.502808 450.202148,100.463524 451.237762,91.665176 
	C494.179840,96.594231 533.992554,109.730530 571.761230,131.042480 
	C567.448792,138.659164 563.389526,145.828674 559.643066,152.445801 
	C543.091797,145.378479 526.947754,138.485031 510.441772,131.432800 
z"/>
<path fill="#FCFDFF" opacity="1.000000" stroke="none" 
	d="
M710.174805,287.798889 
	C722.558960,317.689880 729.967957,348.404175 733.016357,380.954224 
	C724.549438,381.747620 716.229614,382.527222 707.395691,383.355011 
	C703.566040,343.751648 692.663269,306.718384 674.002441,271.631409 
	C681.678528,267.534546 688.960388,263.648102 697.137329,259.283936 
	C701.514893,268.841064 705.774841,278.141357 710.174805,287.798889 
z"/>
<path fill="#FDFDFF" opacity="1.000000" stroke="none" 
	d="
M639.018188,219.991302 
	C629.668579,210.261383 620.939514,200.371124 611.281067,191.491837 
	C601.633911,182.623001 591.056458,174.766174 580.448853,166.108170 
	C584.915527,159.563034 589.562012,152.754349 594.612854,145.353149 
	C630.290955,169.767593 659.554260,199.874466 683.132263,236.233810 
	C675.800049,240.990860 668.756836,245.560379 661.981445,249.956116 
	C654.195435,239.797729 646.713379,230.035904 639.018188,219.991302 
z"/>
<path fill="#FDFEFF" opacity="1.000000" stroke="none" 
	d="
M235.915894,172.880310 
	C220.890579,185.986053 206.158829,198.889542 190.873581,212.277832 
	C185.544800,207.570221 179.262222,202.020004 172.641281,196.170868 
	C201.393555,163.774628 234.962418,138.571564 274.185242,120.001205 
	C277.882324,127.802032 281.410309,135.246170 284.633148,142.046341 
	C268.345245,152.349686 252.277344,162.513855 235.915894,172.880310 
z"/>
<path fill="#FDFDFF" opacity="1.000000" stroke="none" 
	d="
M294.853210,680.157471 
	C300.390747,682.484314 305.578766,684.660889 311.219330,687.027405 
	C308.303009,694.941650 305.453094,702.675781 302.367401,711.049744 
	C299.487915,709.955078 296.737854,709.025635 294.082336,707.877380 
	C287.371643,704.975525 280.293182,702.641785 274.123322,698.843872 
	C266.618469,694.223999 259.777100,694.278870 251.649384,697.086853 
	C234.846039,702.892151 217.708328,707.730286 200.701645,712.945007 
	C199.146729,713.421875 197.545212,713.746765 195.564072,714.242676 
	C193.059082,706.089478 190.640976,698.218994 188.076675,689.872681 
	C196.476837,687.254639 204.510452,684.721252 212.562424,682.247620 
	C228.131195,677.464783 243.730484,672.779968 259.272980,667.913513 
	C263.990173,666.436523 268.187988,666.690918 272.636017,669.129333 
	C279.769318,673.039795 287.199188,676.409241 294.853210,680.157471 
z"/>
<path fill="#FDFEFF" opacity="1.000000" stroke="none" 
	d="
M661.063599,570.029663 
	C665.960632,561.886353 670.670532,554.051880 675.690735,545.701416 
	C683.079041,549.539062 690.519165,553.403625 698.293030,557.441528 
	C678.291626,595.714905 651.942871,628.335266 618.752686,656.243774 
	C613.183899,649.595276 607.792542,643.158630 602.165833,636.440979 
	C625.045532,617.045898 644.701416,595.223511 661.063599,570.029663 
z"/>
</svg>